<svg width="57" height="47" viewBox="0 0 57 47" fill="none" xmlns="http://www.w3.org/2000/svg">
<path d="M32.9668 23.153H8.86432C8.40787 23.153 8.02936 23.5307 8.02936 23.9862V40.9059C8.02936 41.3613 8.40787 41.7391 8.86432 41.7391H32.9557C33.4121 41.7391 33.7907 41.3613 33.7907 40.9059V23.9862C33.8018 23.5307 33.4233 23.153 32.9668 23.153ZM32.1319 40.0727H9.69928V24.8194H32.1207V40.0727H32.1319Z" fill="#0033A0"/>
<path d="M51.7564 44.5267H38.2523V41.7382H48.9621L48.5657 40.3481L47.611 40.0718H38.2523V24.8185H47.2922L47.7041 44.5267V46.1931H48.9621V23.9853C48.9621 23.5298 48.5836 23.1521 48.1271 23.1521H37.4174C36.9609 23.1521 36.5824 23.5298 36.5824 23.9853V44.5267H5.24355V20.6191C6.03398 20.8858 6.88008 21.0413 7.75957 21.0413C10.7766 21.0413 13.3928 19.3082 14.673 16.7975C15.9533 19.3082 18.5695 21.0413 21.5865 21.0413C24.6035 21.0413 27.2197 19.3082 28.5 16.7975C29.7803 19.3082 32.3965 21.0413 35.4135 21.0413C38.4305 21.0413 41.0467 19.3082 42.327 16.7975C43.6072 19.3082 46.2234 21.0413 49.2404 21.0413C50.1199 21.0413 50.966 20.8969 51.7564 20.6191V44.5267L52.5914 45.3599L53.4264 46.1931V19.8193C55.575 18.4417 57 16.0421 57 13.3091C57 13.1647 56.9666 13.0203 56.8887 12.8981L50.2646 1.32203C49.7971 0.511035 48.9287 0 47.9936 0H9.00645C8.07129 0 7.1918 0.499926 6.73535 1.32203L0.111328 12.887C0.0445312 13.0092 0 13.1536 0 13.298C0 16.0309 1.425 18.4306 3.57363 19.8082V44.5267H2.62734C2.1709 44.5267 1.79238 44.9044 1.79238 45.3599C1.79238 45.8154 2.1709 46.1931 2.62734 46.1931H53.4264L51.7564 44.5267ZM21.5865 19.3638C18.5139 19.3638 15.9756 17.0863 15.5637 14.1312H27.6094C27.1975 17.0863 24.648 19.3638 21.5865 19.3638ZM35.4135 19.3638C32.3408 19.3638 29.8025 17.0863 29.3906 14.1312H41.4363C41.0355 17.0863 38.4861 19.3638 35.4135 19.3638ZM1.72559 14.1312H4.39746C4.85391 14.1312 5.23242 13.7535 5.23242 13.298C5.23242 12.8425 4.85391 12.4648 4.39746 12.4648H2.27109L8.18262 2.14412C8.34961 1.84417 8.67246 1.66642 9.00645 1.66642H47.9824C48.3275 1.66642 48.6393 1.84417 48.8063 2.14412L54.7178 12.4648H52.5914C52.135 12.4648 51.7564 12.8425 51.7564 13.298C51.7564 13.7535 52.135 14.1312 52.5914 14.1312H55.2633C54.8514 17.0863 52.3131 19.3638 49.2404 19.3638C46.1678 19.3638 43.6295 17.0863 43.2176 14.1312H49.0178C49.4742 14.1312 49.8527 13.7535 49.8527 13.298C49.8527 12.8425 49.4742 12.4648 49.0178 12.4648H7.97109C7.51465 12.4648 7.13613 12.8425 7.13613 13.298C7.13613 13.7535 7.51465 14.1312 7.97109 14.1312H13.7713C13.3594 17.0863 10.8211 19.3638 7.74844 19.3638C4.67578 19.3638 2.1375 17.0863 1.72559 14.1312Z" fill="#0033A0"/>
</svg>
