<svg
  viewBox="0 0 53 49"
  fill="none"
  xmlns="http://www.w3.org/2000/svg"
>
  <path
    d="M36.9936 24.2469C36.9299 24.2469 36.8555 24.2364 36.7918 24.2259C36.7281 24.2154 36.6644 24.1944 36.6006 24.1734C36.5369 24.1524 36.4838 24.1209 36.4201 24.0789C36.367 24.0368 36.3139 23.9948 36.2608 23.9528C36.2183 23.9108 36.1758 23.8583 36.1333 23.7953C36.1015 23.7427 36.0696 23.6797 36.0377 23.6167C36.0165 23.5537 35.9952 23.4906 35.9846 23.4276C35.974 23.3646 35.9634 23.2911 35.9634 23.228C35.9634 23.165 35.974 23.0915 35.9846 23.0285C35.9952 22.9654 36.0165 22.9024 36.0377 22.8394C36.059 22.7764 36.0908 22.7239 36.1333 22.6608C36.1652 22.6083 36.2183 22.5558 36.2608 22.5033C36.3032 22.4613 36.3563 22.4192 36.4201 22.3772C36.4732 22.3457 36.5369 22.3142 36.6006 22.2827C36.6644 22.2617 36.7281 22.2407 36.7918 22.2302C36.9193 22.1987 37.0573 22.1987 37.1954 22.2302C37.2591 22.2407 37.3228 22.2617 37.3866 22.2827C37.4503 22.3037 37.5034 22.3352 37.5671 22.3772C37.6202 22.4087 37.6733 22.4613 37.7264 22.5033C37.7689 22.5453 37.8114 22.5978 37.8539 22.6608C37.8858 22.7134 37.9176 22.7764 37.9495 22.8394C37.9707 22.9024 37.992 22.9654 38.0026 23.0285C38.0132 23.0915 38.0238 23.165 38.0238 23.228C38.0238 23.2911 38.0132 23.3646 38.0026 23.4276C37.992 23.4906 37.9707 23.5537 37.9495 23.6167C37.9282 23.6797 37.8964 23.7322 37.8539 23.7953C37.8114 23.8478 37.7689 23.9003 37.7264 23.9528C37.684 23.9948 37.6309 24.0368 37.5671 24.0789C37.514 24.1104 37.4503 24.1419 37.3866 24.1734C37.3228 24.1944 37.2591 24.2154 37.1954 24.2259C37.1317 24.2364 37.0573 24.2469 36.9936 24.2469Z"
    fill="#0033A0"></path>
  <path
    d="M15.3561 24.2461C15.0693 24.2461 14.7932 24.1306 14.5914 23.8995C14.2197 23.4793 14.2622 22.8386 14.6764 22.4709L25.499 13.0175C25.8814 12.6814 26.4655 12.6814 26.8479 13.0175L34.7391 19.908C35.164 20.2756 35.2065 20.9164 34.8241 21.3365C34.4418 21.7567 33.8045 21.7987 33.3797 21.4206L26.1681 15.1182L16.0252 23.9835C15.834 24.1621 15.5898 24.2461 15.3561 24.2461Z"
    fill="#0033A0"></path>
  <path
    d="M51.9867 21.42L45.2531 15.7479V5.63269C45.2531 5.07599 44.7964 4.62432 44.2335 4.62432H38.9019C38.3389 4.62432 37.8823 5.07599 37.8823 5.63269V9.54013L26.8366 0.244215C26.4542 -0.0814049 25.8913 -0.0814049 25.509 0.244215L0.358817 21.42C-0.0553955 21.7666 -0.119121 22.3758 0.210126 22.8065L3.35389 26.8505C3.52383 27.0711 3.77873 27.2076 4.06549 27.2391C4.34163 27.2706 4.6284 27.1761 4.84081 26.9975L7.10305 25.0648V47.1544C7.10305 47.7111 7.55975 48.1628 8.12265 48.1628H39.9219H45.2531C45.2531 48.1628 45.5078 48.1473 43.2033 46.1356L45.2531 48.1628V25.0648L47.5154 26.9975C47.7065 27.1551 47.9402 27.2391 48.1845 27.2391C48.2163 27.2391 48.2588 27.2391 48.2907 27.2391C48.5668 27.2076 48.8217 27.0711 49.0023 26.8505L52.146 22.8065C52.4647 22.3758 52.4009 21.7666 51.9867 21.42ZM43.2033 46.1356H38.0097H29.821H22.5139H12.8064H9.14225V23.3212L26.1781 8.78385L43.2033 23.3212V29.4224V46.1356ZM48.0252 24.7707L26.8366 6.67257C26.4542 6.34695 25.8807 6.34695 25.4984 6.67257L4.30977 24.7707L2.41926 22.3443L26.1675 2.33448L38.2327 12.4917C38.5407 12.7438 38.9656 12.8068 39.3267 12.6388C39.6878 12.4707 39.9215 12.1136 39.9215 11.7249V6.64106H43.2139V16.2101C43.2139 16.5042 43.3414 16.7878 43.575 16.9769L49.9263 22.3233L48.0252 24.7707Z"
    fill="#0033A0"></path>
  <path
    d="M32.2349 48.1006H19.7342C19.2032 48.1006 18.7783 47.6805 18.7783 47.1553V29.4038C18.7783 28.8786 19.2032 28.4584 19.7342 28.4584H32.2349C32.766 28.4584 33.1908 28.8786 33.1908 29.4038V47.1553C33.1908 47.6805 32.7553 48.1006 32.2349 48.1006ZM20.6901 46.2099H31.279V30.3491H20.6901V46.2099Z"
    fill="#0033A0"></path>
</svg>
