<svg xmlns="http://www.w3.org/2000/svg" width="58"
  height="58" viewBox="0 0 48 48"><path fill="none" stroke="#0033A0" stroke-linecap="round" stroke-linejoin="round" stroke-width="2" d="M28 17V7a2 2 0 0 0-2-2h-4a2 2 0 0 0-2 2v10"/><path fill="none" stroke="#0033A0" stroke-linecap="round" stroke-linejoin="round" stroke-width="2" d="M20 8C14.08 8 7.801 12.79 7 25l-2 1v4a76.064 76.064 0 0 0 19 2 76.063 76.063 0 0 0 19-2v-4l-2-1c-.801-12.21-6-17-13-17M13 26h22"/><path fill="none" stroke="#0033A0" stroke-linecap="round" stroke-linejoin="round" stroke-width="2.017" d="M9 31v5a7 7 0 0 0 7 7 6.855 6.855 0 0 0 6.827-6.003A1.194 1.194 0 0 1 24 36h0a1.194 1.194 0 0 1 1.173.996A6.857 6.857 0 0 0 32 43a7 7 0 0 0 7-7v-5M6 32h3v4H6zM39 32h3v4h-3z"/></svg>