

  <svg xmlns="http://www.w3.org/2000/svg" width="58"
  fill="#0033A0" height="58" enable-background="new 0 0 64 64" viewBox="0 0 64 64"><path d="M42.4423828,28.3388672c-0.5029297-0.6591797-1.0742188-1.40625-1.734375-2.5634766
	c-1.6669922-2.9208984-2.6503906-6.2578125-2.9238281-9.9150391c-0.0253906-0.3359375-0.2177734-0.6376953-0.5126953-0.8007812
	c-0.2939453-0.1621094-0.6523438-0.1669922-0.9501953-0.0097656c-2.6318359,1.3857422-4.9130859,3.3886719-6.5976562,5.7910156
	c-2.5644531,3.6601562-3.2207031,7.4677734-3.3466797,9.8544922c-0.7988281-0.0419922-1.5429688-0.4042969-2.0175781-1.0136719
	c-0.7304688-0.9384766-0.5224609-2.0693359-0.4726562-2.2871094c0.0996094-0.4423828-0.1103516-0.8964844-0.5117188-1.1064453
	c-0.4003906-0.2109375-0.8945312-0.125-1.2011719,0.2099609c-1.0791016,1.1787109-1.9746094,2.4970703-2.6601562,3.9179688
	c-0.5361328,1.109375-2.1679688,4.4873047-1.5458984,8.6308594c1.0146484,6.7548828,7.0703125,9.9716797,7.3271484,10.1054688
	c1.0908203,0.5654297,3.4609375,1.5800781,6.4306641,1.5800781c1.21875,0,2.5390625-0.1708984,3.9121094-0.6132812
	c2.1210938-0.6855469,5.1298828-2.2910156,7.4150391-6.0527344c2.2324219-3.6728516,2.7333984-8.2685547,1.3398438-12.2939453
	C43.8339844,30.1582031,43.1894531,29.3154297,42.4423828,28.3388672z M41.34375,43.0273438
	c-1.578125,2.5986328-3.7050781,4.34375-6.3203125,5.1875c-4.0009766,1.2919922-7.4921875-0.1542969-8.8066406-0.8378906
	c-0.2207031-0.1142578-5.40625-2.8691406-6.2705078-8.6269531c-0.53125-3.5322266,0.8486328-6.3886719,1.3681641-7.4648438
	c0.2470703-0.5107422,0.5244141-1.0068359,0.8320312-1.4863281c0.1455078,0.3701172,0.3505859,0.7460938,0.6347656,1.1113281
	c1.0908203,1.4013672,2.9707031,2.0654297,4.7744141,1.6826172c0.4628906-0.0966797,0.7949219-0.5039062,0.7958984-0.9765625
	c0.0039062-1.9960938,0.3994141-5.9013672,3.0107422-9.6269531c1.2167969-1.7373047,2.7851562-3.2402344,4.5878906-4.4072266
	c0.4355469,3.3466797,1.4492188,6.4296875,3.0214844,9.1845703c0.7265625,1.2744141,1.3398438,2.0771484,1.8818359,2.7861328
	c0.6943359,0.9082031,1.1953125,1.5644531,1.6484375,2.8740234C43.6855469,35.84375,43.2412109,39.90625,41.34375,43.0273438z"/><path d="M32.8066406,2.4091797c-0.3769531-0.5136719-1.2363281-0.5136719-1.6132812,0
	C30.8730469,2.84375,23.2001953,13.0390625,9.1298828,10.3535156C8.8359375,10.2988281,8.5341797,10.375,8.3046875,10.5654297
	s-0.3623047,0.4726562-0.3623047,0.7705078v25.8789062c0,7.5976562,3.9619141,14.5224609,10.3408203,18.0722656
	c0.9306641,0.5175781,1.9091797,0.9658203,2.9091797,1.3310547c8.3632812,3.0556641,9.8974609,4.8427734,9.9902344,4.9580078
	c0.1777344,0.2490234,0.4736328,0.3896484,0.7822266,0.4052734c0.0146484,0,0.0292969,0.0009766,0.0439453,0.0009766
	c0.3095703,0,0.6152344-0.1582031,0.8056641-0.4033203c0.0585938-0.0742188,1.5263672-1.8671875,9.9931641-4.9609375
	c0.6757812-0.2470703,1.3457031-0.5332031,1.9912109-0.8505859c6.8398438-3.3642578,11.2587891-10.6572266,11.2587891-18.5810547
	V11.3359375c0-0.2978516-0.1328125-0.5800781-0.3623047-0.7705078c-0.2304688-0.1904297-0.5322266-0.2675781-0.8251953-0.2119141
	C40.7988281,13.0400391,33.1269531,2.8447266,32.8066406,2.4091797z M54.0576172,37.1865234
	c0,7.1669922-3.9804688,13.7558594-10.1416016,16.7861328c-0.5820312,0.2861328-1.1855469,0.5449219-1.7939453,0.7666016
	C35.9208984,57.0048828,33.1865234,58.6708984,32,59.6191406c-1.1865234-0.9482422-3.9208984-2.6142578-10.1210938-4.8798828
	c-0.9013672-0.3291016-1.7841797-0.7333984-2.6230469-1.2001953c-5.7451172-3.1972656-9.3134766-9.4521484-9.3134766-16.3242188
	V12.5175781C21.9355469,14.2724609,29.6025391,7.1904297,32,4.5478516
	c2.3984375,2.6435547,10.0664062,9.7275391,22.0576172,7.9697266V37.1865234z"/><path d="M36.5537109,43.4892578c-2.2207031,1.8496094-5.2167969,2.3974609-7.8183594,1.4277344
	c-3.2285156-1.2021484-4.4228516-4.21875-4.6298828-4.8105469c-0.1826172-0.5224609-0.7548828-0.7958984-1.2734375-0.6152344
	c-0.5214844,0.1816406-0.796875,0.7519531-0.6152344,1.2734375c0.2587891,0.7412109,1.7539062,4.5126953,5.8212891,6.0273438
	c1.0761719,0.4003906,2.2050781,0.5957031,3.3339844,0.5957031c2.3017578,0,4.6025391-0.8134766,6.4609375-2.3613281
	c0.4248047-0.3535156,0.4824219-0.984375,0.1289062-1.4082031C37.6074219,43.1933594,36.9785156,43.1367188,36.5537109,43.4892578z"/></svg>