<svg
  width="54"
  height="52"
  viewBox="0 0 54 52"
  fill="none"
  xmlns="http://www.w3.org/2000/svg"
>
  <g clip-path="url(#clip0_1546_644)">
    <path
      d="M58.9785 35.7826C58.9637 35.1908 58.9511 34.628 58.9511 34.0922C58.9511 33.6659 58.5971 33.3369 58.1693 33.3369C56.5276 33.3369 55.0778 33.1135 53.7754 32.6562C54.0368 32.2196 54.1864 31.7086 54.1885 31.1685V12.2779C54.1885 10.7137 52.9747 9.44533 51.4784 9.44533H41.5444V6.6107C41.5402 2.96085 38.7121 0.00413815 35.2223 0H18.9662C15.4764 0.00413815 12.6483 2.96085 12.6441 6.6107V9.44326H2.71006C1.21384 9.44533 0 10.7137 0 12.2779V31.1665C0.00421471 32.3624 0.727037 33.428 1.806 33.8252V46.2769C1.806 47.8412 3.01984 49.1095 4.51606 49.1095H43.9931C45.2744 50.2392 46.9518 51.2179 49.1519 51.9586C49.2362 51.9855 49.3226 52 49.4069 52C49.4238 52 49.4406 51.9979 49.4575 51.9959C49.4743 51.9979 49.4912 52 49.5081 52C49.5924 52 49.6788 51.9855 49.763 51.9586C59.2208 48.7867 59.0775 41.2677 58.9785 35.7826ZM14.4501 6.6107C14.4522 4.00366 16.4732 1.89113 18.9662 1.88907H35.2223C37.7153 1.89113 39.7341 4.00366 39.7384 6.6107V9.44326H37.8965L37.9324 6.6107C37.9303 5.04647 36.7185 3.7802 35.2223 3.77813H18.9325C17.4383 3.7802 16.2266 5.04854 16.2224 6.6107V6.62104L16.2477 9.44533H14.4501V6.6107ZM36.1264 6.59828L36.0905 9.44533H18.0537L18.0263 6.61276C18.0263 6.09136 18.4309 5.66927 18.9304 5.66927H35.2244C35.7175 5.6672 36.1179 6.08101 36.1264 6.59828ZM1.806 31.1665V12.2779C1.806 11.7565 2.21061 11.3344 2.71006 11.3344H51.4805C51.98 11.3344 52.3846 11.7565 52.3846 12.2779V31.1665C52.3846 31.4499 52.2624 31.7003 52.0748 31.872C51.3667 31.4644 50.7029 30.9699 50.077 30.3802C49.9085 30.223 49.6893 30.1547 49.4743 30.1692C49.2594 30.1568 49.0402 30.225 48.8716 30.3802C48.1172 31.0899 47.3101 31.6631 46.4355 32.112H44.2544V31.1685C44.2481 29.6064 43.0385 28.3422 41.5444 28.336C40.0481 28.336 38.8343 29.6043 38.8343 31.1685V32.112H15.3542V31.1685C15.3542 29.6043 14.1403 28.336 12.6441 28.336C11.1521 28.3443 9.94249 29.6085 9.93406 31.1685V32.112H2.71006C2.21061 32.112 1.806 31.6879 1.806 31.1665ZM40.6424 33.3473V31.1665C40.6424 30.6451 41.047 30.223 41.5465 30.223C41.7909 30.223 42.0227 30.3264 42.1913 30.5127C42.3578 30.6865 42.4526 30.9223 42.4505 31.1685V33.25C41.9153 33.3059 41.3589 33.3369 40.7752 33.3369C40.7288 33.3349 40.6846 33.3411 40.6424 33.3473ZM13.5482 31.1665V35.8881H11.7422V31.1665C11.7422 30.912 11.8412 30.6678 12.0203 30.494C12.1847 30.3182 12.4102 30.2188 12.6462 30.223C13.1436 30.223 13.5482 30.6451 13.5482 31.1665ZM4.51606 47.2225C4.01662 47.2225 3.612 46.8004 3.612 46.279V34.0011H9.93406V36.8337C9.93406 37.3551 10.3387 37.7772 10.8381 37.7772H14.4501C14.9496 37.7772 15.3542 37.3551 15.3542 36.8337V34.0011H38.8364V36.8337C38.8364 37.3551 39.241 37.7772 39.7405 37.7772H39.9407C39.947 40.8808 40.2589 44.3403 42.2967 47.2225H4.51606ZM41.6539 35.8095C41.6687 35.4805 41.6687 35.1494 41.6813 34.8474C43.0996 34.7915 44.3851 34.5722 45.5673 34.1853H45.5715C47.0319 33.7073 48.3364 32.9707 49.5354 31.961C51.6934 33.7901 54.237 34.7232 57.3875 34.8474C57.3875 35.1639 57.4022 35.4805 57.4148 35.8095C57.4991 41.336 57.6129 47.5763 49.5186 50.4213C41.4116 47.5639 41.5402 41.3215 41.6539 35.8095Z"
      fill="#0033A0"></path>
    <path
      d="M54.1063 37.8021C53.7522 37.4732 53.1559 37.4732 52.785 37.829L48.212 42.2548L46.2522 40.3575C45.8834 39.9995 45.287 39.9995 44.9035 40.3575C44.5199 40.7154 44.5347 41.2927 44.9035 41.663L47.5166 44.1914C47.702 44.3694 47.9423 44.4521 48.1846 44.4521C48.427 44.4521 48.6672 44.3694 48.8526 44.1914L54.1063 39.1057C54.4751 38.7518 54.4751 38.1746 54.1063 37.8021Z"
      fill="#0033A0"></path>
  </g>
  <g clip-path="url(#clip1_1546_644)">
    <path
      d="M-4.9785 35.7826C-4.96375 35.1908 -4.95111 34.628 -4.95111 34.0922C-4.95111 33.6659 -4.59707 33.3369 -4.16928 33.3369C-2.52765 33.3369 -1.07779 33.1135 0.224556 32.6562C-0.0367546 32.2196 -0.186382 31.7086 -0.188488 31.1685V12.2779C-0.188488 10.7137 1.02535 9.44533 2.52157 9.44533H12.4556V6.6107C12.4598 2.96085 15.2879 0.00413815 18.7777 0H35.0338C38.5236 0.00413815 41.3517 2.96085 41.3559 6.6107V9.44326H51.2899C52.7862 9.44533 54 10.7137 54 12.2779V31.1665C53.9958 32.3624 53.273 33.428 52.194 33.8252V46.2769C52.194 47.8412 50.9802 49.1095 49.4839 49.1095H10.0069C8.72562 50.2392 7.04816 51.2179 4.84809 51.9586C4.76379 51.9855 4.67739 52 4.5931 52C4.57624 52 4.55938 51.9979 4.54252 51.9959C4.52566 51.9979 4.5088 52 4.49194 52C4.40765 52 4.32125 51.9855 4.23695 51.9586C-5.22085 48.7867 -5.07755 41.2677 -4.9785 35.7826ZM39.5499 6.6107C39.5478 4.00366 37.5268 1.89113 35.0338 1.88907H18.7777C16.2847 1.89113 14.2659 4.00366 14.2616 6.6107V9.44326H16.1035L16.0676 6.6107C16.0697 5.04647 17.2815 3.7802 18.7777 3.77813H35.0675C36.5617 3.7802 37.7734 5.04854 37.7776 6.6107V6.62104L37.7523 9.44533H39.5499V6.6107ZM17.8736 6.59828L17.9095 9.44533H35.9463L35.9737 6.61276C35.9737 6.09136 35.5691 5.66927 35.0696 5.66927H18.7756C18.2825 5.6672 17.8821 6.08101 17.8736 6.59828ZM52.194 31.1665V12.2779C52.194 11.7565 51.7894 11.3344 51.2899 11.3344H2.51946C2.02002 11.3344 1.61541 11.7565 1.61541 12.2779V31.1665C1.61541 31.4499 1.73763 31.7003 1.92519 31.872C2.63326 31.4644 3.29707 30.9699 3.92296 30.3802C4.09155 30.223 4.31071 30.1547 4.52566 30.1692C4.74061 30.1568 4.95978 30.225 5.12836 30.3802C5.8828 31.0899 6.68991 31.6631 7.56446 32.112H9.74558V31.1685C9.7519 29.6064 10.9615 28.3422 12.4556 28.336C13.9519 28.336 15.1657 29.6043 15.1657 31.1685V32.112H38.6458V31.1685C38.6458 29.6043 39.8597 28.336 41.3559 28.336C42.8479 28.3443 44.0575 29.6085 44.0659 31.1685V32.112H51.2899C51.7894 32.112 52.194 31.6879 52.194 31.1665ZM13.3576 33.3473V31.1665C13.3576 30.6451 12.953 30.223 12.4535 30.223C12.2091 30.223 11.9773 30.3264 11.8087 30.5127C11.6422 30.6865 11.5474 30.9223 11.5495 31.1685V33.25C12.0847 33.3059 12.6411 33.3369 13.2248 33.3369C13.2712 33.3349 13.3154 33.3411 13.3576 33.3473ZM40.4518 31.1665V35.8881H42.2578V31.1665C42.2578 30.912 42.1588 30.6678 41.9797 30.494C41.8153 30.3182 41.5898 30.2188 41.3538 30.223C40.8564 30.223 40.4518 30.6451 40.4518 31.1665ZM49.4839 47.2225C49.9834 47.2225 50.388 46.8004 50.388 46.279V34.0011H44.0659V36.8337C44.0659 37.3551 43.6613 37.7772 43.1619 37.7772H39.5499C39.0504 37.7772 38.6458 37.3551 38.6458 36.8337V34.0011H15.1636V36.8337C15.1636 37.3551 14.759 37.7772 14.2595 37.7772H14.0593C14.053 40.8808 13.7411 44.3403 11.7033 47.2225H49.4839ZM12.3461 35.8095C12.3313 35.4805 12.3313 35.1494 12.3187 34.8474C10.9004 34.7915 9.61492 34.5722 8.4327 34.1853H8.42848C6.96808 33.7073 5.66364 32.9707 4.46455 31.961C2.30662 33.7901 -0.236958 34.7232 -3.38745 34.8474C-3.38745 35.1639 -3.4022 35.4805 -3.41485 35.8095C-3.49914 41.336 -3.61293 47.5763 4.48141 50.4213C12.5884 47.5639 12.4598 41.3215 12.3461 35.8095Z"
      fill="#0033A0"></path>
    <path
      d="M-0.106277 37.8021C0.247757 37.4732 0.844139 37.4732 1.21503 37.829L5.78799 42.2548L7.74783 40.3575C8.11662 39.9995 8.713 39.9995 9.09654 40.3575C9.48008 40.7154 9.46532 41.2927 9.09654 41.663L6.48342 44.1914C6.29797 44.3694 6.05773 44.4521 5.81539 44.4521C5.57304 44.4521 5.3328 44.3694 5.14735 44.1914L-0.106277 39.1057C-0.475063 38.7518 -0.475063 38.1746 -0.106277 37.8021Z"
      fill="#0033A0"></path>
  </g>
  <defs>
    <clipPath id="clip0_1546_644">
      <rect width="27" height="52" fill="white"></rect>
    </clipPath>
    <clipPath id="clip1_1546_644">
      <rect
        width="27"
        height="52"
        fill="white"
        transform="matrix(-1 0 0 1 54 0)"></rect>
    </clipPath>
  </defs>
</svg>
