<svg
  width="69"
  height="43"
  viewBox="0 0 69 43"
  fill="none"
  xmlns="http://www.w3.org/2000/svg"
>
  <path
    d="M35.6291 37.4279C35.133 37.4279 34.5899 37.5541 34.1538 37.3915C33.7325 37.2353 33.1531 36.7925 33.136 36.4545C33.121 36.1058 33.6684 35.464 34.0297 35.4169C35.1095 35.2779 36.232 35.2779 37.3139 35.4169C37.6774 35.464 38.2269 36.0972 38.2141 36.4459C38.2013 36.7861 37.6282 37.246 37.2113 37.3915C36.7366 37.5562 36.1615 37.43 35.6291 37.43V37.4279Z"
    fill="#0033A0"></path>
  <path
    d="M57.9444 26.4381C59.2016 26.4381 60.3669 26.8168 61.3205 27.4565C61.344 27.4543 61.3654 27.4522 61.3889 27.4479C60.1723 26.4638 59.0113 26.0274 57.8096 26.1985C57.0955 26.2991 56.5289 26.1921 56.0393 25.9161L57.9422 27.2981V26.4381H57.9444Z"
    fill="#0033A0"></path>
  <path
    d="M46.8274 31.78H48.6812C48.6919 30.5842 48.972 29.369 49.5279 28.1325C50.21 28.7593 50.7595 29.3134 51.3603 29.8033C51.9846 30.3125 52.2198 30.8516 52.1599 31.718C52.1557 31.7758 52.1599 31.8357 52.1578 31.8934H53.6844L52.547 31.1147L53.82 30.7376L53.6331 29.5252L54.5076 30.1242C54.4948 30.1135 54.482 30.1028 54.4713 30.09C53.8897 29.5658 53.3231 29.0225 52.7543 28.4833C51.078 26.896 49.406 25.3064 47.6656 23.6549C48.2386 23.1372 48.7261 22.6965 49.2542 22.2173C51.0374 23.8923 52.7543 25.4434 54.39 27.0778C54.7663 27.4543 55.1277 27.7517 55.5382 27.9228L54.5696 27.219L55.545 26.9425L55.69 25.6744C55.4698 25.5033 55.2645 25.2957 55.0636 25.054C54.7043 24.6219 54.2767 24.2432 53.8213 23.7811C54.0821 23.6335 54.3066 23.4602 54.5589 23.3725C57.7491 22.2558 60.7211 22.6687 63.4558 24.6732C63.6183 24.7909 63.7829 24.9085 63.9476 24.9962C62.3333 23.5993 60.2208 22.7499 57.9094 22.7499V20.8246C58.4418 20.8246 58.9635 20.8631 59.4746 20.9358C57.4775 20.6299 55.4121 20.9208 53.2803 21.83C51.9739 22.3863 51.9654 22.4077 51.0866 21.0556C52.9575 20.0009 55.0037 19.2479 57.0734 19.5345C59.3099 19.8447 60.8066 19.0125 62.1964 17.53C62.2926 17.4273 62.4102 17.3417 62.5193 17.2497C65.4977 14.7061 65.8313 9.3321 63.1051 6.5146C58.1532 1.39733 51.9504 -0.346216 45.0185 0.0987641C43.1605 0.218566 42.2582 2.03699 43.0664 3.7292C43.1797 3.96453 43.2802 4.20627 43.4384 4.55926C42.7307 4.55926 42.1641 4.5507 41.5975 4.5614C40.9475 4.57423 40.4686 4.83095 40.4857 5.56046C40.5006 6.24505 40.9625 6.45042 41.574 6.44614C42.3929 6.44187 43.2161 6.4055 44.0307 6.47182C44.3215 6.49535 44.762 6.71998 44.8411 6.95103C45.1169 7.77039 45.2644 8.63467 45.5146 9.71503C45.0634 9.49254 44.8689 9.42409 44.7064 9.3107C39.4508 5.65887 33.4618 6.38838 29.1706 11.1676C28.8883 11.4821 28.3346 11.696 27.8984 11.7089C25.9398 11.7666 23.9727 11.8244 22.0228 11.6918C21.1589 11.634 20.1989 11.2939 19.4997 10.7847C17.2868 9.16951 15.185 7.40456 13.0233 5.71877C12.6705 5.4428 12.2279 5.10693 11.8238 5.10051C9.61936 5.06414 7.40851 5.05558 5.20836 5.17752C4.03665 5.2417 3.2605 6.08246 2.9462 7.17779C2.6212 8.30522 2.83074 9.40483 3.77794 10.1985C4.53912 10.836 5.33878 11.4629 6.21115 11.9228C6.54256 12.0982 7.12628 11.8009 7.59453 11.7174C7.49404 11.2789 7.53252 10.7034 7.26312 10.4274C6.7243 9.87548 5.9674 9.54175 5.40293 9.00692C5.09076 8.70955 4.73369 8.08059 4.85556 7.80034C5.01378 7.43237 5.6146 7.06655 6.04651 7.04302C7.6095 6.95316 9.18104 6.966 10.7462 7.03018C11.2358 7.04943 11.796 7.24197 12.183 7.53934C14.3019 9.16523 16.3845 10.836 18.4606 12.5154C19.4163 13.2877 20.4918 13.6621 21.7106 13.6621C22.4589 13.6621 23.2116 13.7199 23.9535 13.6514C27.4323 13.3348 30.7229 13.9595 33.8959 15.4185C35.585 16.1951 37.3575 16.7812 39.2797 17.5279C37.071 19.173 34.811 19.8619 32.3158 19.7399C29.3438 19.5944 26.6882 20.1314 24.9948 23.0002C21.8603 20.7754 18.8155 18.6146 15.7708 16.4518C13.9128 15.1318 12.0804 13.7755 10.1774 12.524C9.86524 12.3186 9.24946 12.5775 8.77265 12.6224C8.86459 13.0909 8.93729 13.5658 9.05916 14.0279C9.08696 14.137 9.26656 14.2119 9.38416 14.2953C12.694 16.6443 16.006 18.9912 19.3137 21.3423C19.8247 21.706 20.3208 22.0932 20.9173 22.5403C20.308 22.919 19.8162 23.1971 19.3565 23.5201C18.9011 23.8431 18.5718 23.7661 18.142 23.4174C15.5399 21.3145 12.5743 20.54 9.25373 21.0021C3.46363 21.8065 -0.746385 27.4971 0.111012 33.4166C0.953442 39.2399 6.76493 43.5998 12.4695 42.6906C19.0443 41.6423 22.9892 36.2512 21.9992 29.6985C21.9565 29.4118 22.0484 28.9625 22.2451 28.8107C22.8203 28.37 23.4831 28.0405 24.2678 27.5763C24.2678 30.1285 24.2528 32.4753 24.2721 34.82C24.2956 37.9905 26.5086 40.1983 29.6517 40.2111C30.9345 40.2175 32.2174 40.2047 33.5003 40.2197C33.7783 40.2218 34.0541 40.301 34.3321 40.3459C34.3321 40.4657 34.3342 40.5834 34.3363 40.7032C33.9942 40.7567 33.65 40.8529 33.3079 40.8572C31.6701 40.8743 30.0301 40.8636 28.3902 40.8658C27.6653 40.8658 26.8208 40.8059 26.8486 41.8434C26.8742 42.7676 27.6482 42.774 28.3559 42.7719C30.2076 42.7655 32.0614 42.7698 33.9151 42.7698C35.446 42.7698 36.2778 42.0046 36.4103 40.4743C36.4146 40.4144 36.483 40.363 36.5814 40.2154C39.4016 40.2154 42.2817 40.2218 45.1618 40.2133C46.6115 40.209 46.9536 39.6185 46.2373 38.3563C44.9907 36.1657 44.3578 33.821 44.5246 31.2987C44.6679 29.1529 45.2409 27.1398 46.5195 25.3535C47.5187 26.1023 47.8273 26.9944 47.4453 28.0298C45.7669 32.5866 47.3277 37.7552 51.2683 40.5898C53.4706 42.1729 55.9252 42.896 58.9208 42.7099C58.9122 42.7013 58.9058 42.6949 58.8994 42.6863C58.5744 42.7141 58.2473 42.7313 57.9158 42.7313C51.8029 42.7313 46.8295 37.8194 46.8295 31.7822L46.8274 31.78ZM15.232 39.856C10.9942 42.0017 5.8947 40.5962 3.32892 36.5764C0.874331 32.7299 1.73387 27.711 5.35375 24.7609C8.67429 22.0547 14.0603 22.1188 16.8933 24.9727C15.9761 25.5354 15.0994 26.1301 14.1651 26.6072C13.8935 26.7462 13.4274 26.6072 13.0853 26.4916C10.218 25.5054 7.15621 26.7569 5.89043 29.4546C4.66313 32.071 5.65309 35.1559 8.20818 36.6855C11.4517 38.628 15.8649 36.7604 16.6303 33.0572C16.7864 32.302 17.0879 31.8549 17.7251 31.5148C18.467 31.119 19.1769 30.6676 19.9145 30.2312C21.1333 33.4466 18.8668 38.0162 15.232 39.856ZM9.11261 33.1642C9.98284 34.666 11.7725 35.0168 13.5771 34.037C13.6989 33.9707 13.8294 33.9194 14.1993 33.7461C12.9335 35.4854 11.1652 35.9539 9.46755 35.1666C7.89387 34.4349 6.99585 32.6443 7.38927 31.0142C7.83614 29.1615 9.36064 28.0362 11.595 28.1389C11.1225 28.4619 10.8402 28.6695 10.5409 28.8556C8.73416 29.9723 8.19749 31.5854 9.11261 33.1663V33.1642ZM23.7097 25.5974C20.0043 27.8565 16.2925 30.1071 12.5914 32.3726C11.9328 32.7748 11.285 32.9289 10.8295 32.1951C10.3741 31.4634 10.7846 30.9457 11.4517 30.5414C14.984 28.4085 18.5183 26.2777 22.0292 24.1084C23.2522 23.3511 23.5537 24.6304 24.5607 24.9428C24.0968 25.3022 23.9172 25.4712 23.7097 25.5974ZM62.4829 14.4793C60.8558 14.0771 60.0048 13.0674 59.9856 11.6768C59.9663 10.3076 60.89 9.22941 62.4722 8.85075C63.1842 10.712 63.1137 12.5561 62.4829 14.4772V14.4793ZM31.0864 12.2587C31.0586 12.248 31.0457 12.2031 30.9816 12.1111C34.1995 8.08273 41.125 7.89447 44.4198 11.741C44.6037 11.957 44.6786 12.5432 44.5268 12.7229C43.5967 13.8183 42.6003 14.858 41.5868 15.8763C41.435 16.0282 41.033 16.0795 40.8171 15.9982C37.5671 14.7703 34.3299 13.5123 31.0885 12.2587H31.0864ZM43.6138 37.4493C43.6993 37.6782 43.7699 37.9114 43.8832 38.2494C43.4598 38.275 43.122 38.3135 42.7863 38.3135C38.5121 38.3178 34.238 38.32 29.9638 38.3135C27.4964 38.3114 26.2071 37.0321 26.1964 34.5654C26.1857 31.8934 26.19 29.2193 26.1964 26.5473C26.2028 23.3083 27.8984 21.599 31.1676 21.6482C33.65 21.6846 36.1431 21.6525 38.3154 20.3368C40.4365 19.0511 42.5468 17.6733 44.4113 16.0496C47.0519 13.7498 47.7169 10.6777 47.0049 7.28904C46.9621 7.0858 46.9087 6.88471 46.8231 6.53386C47.2636 6.49749 47.6848 6.57023 47.982 6.41192C48.3605 6.21082 48.6427 5.82146 48.9655 5.5134C48.6363 5.19678 48.3327 4.84593 47.967 4.57851C47.8281 4.47583 47.5437 4.51647 47.3406 4.55926C46.1068 4.82667 45.4397 4.20199 44.9544 3.16014C44.5353 2.26162 44.6679 1.99635 45.7541 1.94286C48.8095 1.79311 51.7965 2.18247 54.6744 3.23716C57.0242 4.0993 59.1453 5.35295 60.967 7.1457C57.5502 8.99622 56.6907 13.4417 60.751 16.1287C59.8744 17.2027 58.9037 17.6284 57.4968 17.6049C46.9044 17.4252 39.8827 27.5228 43.618 37.445L43.6138 37.4493Z"
    fill="#0033A0"></path>
  <path
    d="M52.3466 33.3717C52.8491 35.1409 54.2731 36.6299 55.8618 36.9914C54.1619 36.3775 52.8448 35.034 52.3466 33.3717Z"
    fill="#0033A0"></path>
  <path
    d="M55.2956 34.4799C54.9278 33.9558 54.5558 33.4274 54.4553 32.7834C54.7333 33.0188 55.1951 33.1172 55.6056 33.2712C55.58 33.2519 55.5543 33.2348 55.5287 33.2156L55.5586 33.1792L54.0683 32.1588C54.1431 33.0722 54.6007 33.8916 55.2956 34.4799Z"
    fill="#0033A0"></path>
  <path
    d="M69.0006 31.78C69.0006 26.267 64.8547 21.6952 59.4794 20.9422C58.9684 20.8694 58.4445 20.8309 57.9143 20.8309L57.4998 22.0117L57.9143 22.7563C60.2256 22.7563 62.3402 23.6056 63.9524 25.0026C65.866 26.6585 67.0762 29.0823 67.0762 31.7821C67.0762 36.7582 62.9667 40.8058 57.9143 40.8058C52.8618 40.8058 48.7523 36.7582 48.7523 31.7821L47.9555 31.4275L46.828 31.7821C46.828 37.8193 51.8013 42.7312 57.9143 42.7312C58.2457 42.7312 58.5728 42.7141 58.8978 42.6863C64.5511 42.1921 69.0006 37.492 69.0006 31.7821V31.78Z"
    fill="#0033A0"></path>
  <path
    d="M52.2679 33.0893C52.2679 33.0893 52.2721 33.1107 52.2764 33.1192C52.2978 33.2048 52.3192 33.2882 52.3448 33.3717C52.843 35.0339 54.1601 36.3774 55.86 36.9914C56.5078 37.2246 57.2091 37.3551 57.9447 37.3551C61.1519 37.3551 63.7626 34.9056 63.7626 31.8955C63.7626 30.0664 62.7982 28.4448 61.3208 27.4543C60.3672 26.8146 59.2019 26.436 57.9447 26.436L57.5002 26.5117L57.9447 27.296L56.0417 25.914L55.7017 25.668L55.6932 25.6808L54.5002 26.0117L54.5728 27.2254L55.5414 27.9292L57.9981 29.7134L57.9938 29.722C58.0195 29.7348 58.043 29.7498 58.0687 29.7648L58.2868 29.9231C58.5262 30.1456 58.6695 30.4601 58.6695 30.7938C58.6695 31.4484 58.1371 31.9811 57.4828 31.9811C57.3631 31.9811 57.2455 31.9597 57.1343 31.9255L54.5108 30.1285L53.6363 29.4168V29.5295L52.5501 31.119L53.6876 31.8977L52.7838 31.4275L52.131 31.8977C52.131 32.3063 52.1802 32.7064 52.2721 33.0893H52.2679ZM55.5563 33.1791L55.5264 33.2155C55.5521 33.2348 55.5777 33.2519 55.6034 33.2711C56.1422 33.6797 56.8029 33.9044 57.4807 33.9044C59.1955 33.9044 60.5917 32.5074 60.5917 30.7917C60.5917 30.075 60.3372 29.3904 59.9032 28.8449C61.0599 29.4589 61.8404 30.5948 61.8404 31.8955C61.8404 33.8445 60.0935 35.4297 57.9468 35.4297C56.9226 35.4297 55.9904 35.0682 55.2955 34.4799C54.6006 33.8894 54.143 33.0722 54.0682 32.1587L54.5088 32.8075L55.5585 33.1791H55.5563Z"
    fill="#0033A0"></path>
</svg>
